<?xml version="1.0" encoding="utf-8"?>
<svg xmlns="http://www.w3.org/2000/svg" height="24px" viewBox="0 -960 960 960" width="24px" fill="#e3e3e3">
  <path d="M 500 -482 C 519.333 -503.333 534.167 -527.667 544.5 -555 C 554.833 -582.333 560 -610.667 560 -640 C 560 -669.333 554.833 -697.667 544.5 -725 C 534.167 -752.333 519.333 -776.667 500 -798 C 540 -792.667 573.333 -775 600 -745 C 626.667 -715 640 -680 640 -640 C 640 -600 626.667 -565 600 -535 C 573.333 -505 540 -487.333 500 -482 Z M 720 -160 L 720 -280 C 720 -304 714.667 -326.833 704 -348.5 C 693.333 -370.167 679.333 -389.333 662 -406 C 696 -394 727.5 -378.5 756.5 -359.5 C 785.5 -340.5 800 -314 800 -280 L 800 -160 L 720 -160 Z M 207 -527 C 175.667 -558.333 160 -596 160 -640 C 160 -684 175.667 -721.667 207 -753 C 238.333 -784.333 276 -800 320 -800 C 364 -800 401.667 -784.333 433 -753 C 464.333 -721.667 480 -684 480 -640 C 480 -596 464.333 -558.333 433 -527 C 401.667 -495.667 364 -480 320 -480 C 276 -480 238.333 -495.667 207 -527 Z M 0 -160 L 0 -272 C 0 -294.667 5.833 -315.5 17.5 -334.5 C 29.167 -353.5 44.667 -368 64 -378 C 105.333 -398.667 147.333 -414.167 190 -424.5 C 232.667 -434.833 276 -440 320 -440 C 364 -440 407.333 -434.833 450 -424.5 C 492.667 -414.167 534.667 -398.667 576 -378 C 595.333 -368 610.833 -353.5 622.5 -334.5 C 634.167 -315.5 640 -294.667 640 -272 L 640 -160 L 0 -160 Z M 320 -560 C 342 -560 360.833 -567.833 376.5 -583.5 C 392.167 -599.167 400 -618 400 -640 C 400 -662 392.167 -680.833 376.5 -696.5 C 360.833 -712.167 342 -720 320 -720 C 298 -720 279.167 -712.167 263.5 -696.5 C 247.833 -680.833 240 -662 240 -640 C 240 -618 247.833 -599.167 263.5 -583.5 C 279.167 -567.833 298 -560 320 -560 Z M 80 -240 L 560 -240 L 560 -272 C 560 -279.333 558.167 -286 554.5 -292 C 550.833 -298 546 -302.667 540 -306 C 504 -324 467.667 -337.5 431 -346.5 C 394.333 -355.5 357.333 -360 320 -360 C 282.667 -360 245.667 -355.5 209 -346.5 C 172.333 -337.5 136 -324 100 -306 C 94 -302.667 89.167 -298 85.5 -292 C 81.833 -286 80 -279.333 80 -272 L 80 -240 Z M 320 -640 Z M 320 -240 Z"/>
  <path d="M 841.013 -440.73 C 807.79 -440.73 779.66 -452.26 756.605 -475.31 C 733.551 -498.37 722.024 -526.51 722.024 -559.72 C 722.024 -592.93 733.551 -621.07 756.605 -644.13 C 779.66 -667.18 807.79 -678.71 841.013 -678.71 C 858.115 -678.71 874.481 -675.17 890.093 -668.11 C 905.714 -661.04 919.1 -650.95 930.25 -637.81 L 930.25 -678.71 L 960.002 -678.71 L 960.002 -574.6 L 855.889 -574.6 L 855.889 -604.34 L 918.355 -604.34 C 910.422 -618.22 899.578 -629.13 885.816 -637.06 C 872.062 -644.99 857.125 -648.96 841.013 -648.96 C 816.223 -648.96 795.149 -640.29 777.802 -622.93 C 760.445 -605.57 751.767 -584.51 751.767 -559.72 C 751.767 -534.93 760.445 -513.86 777.802 -496.51 C 795.149 -479.15 816.223 -470.48 841.013 -470.48 C 860.096 -470.48 877.33 -475.93 892.697 -486.84 C 908.064 -497.74 918.846 -512.12 925.052 -529.97 L 956.285 -529.97 C 949.343 -503.7 935.212 -482.25 913.893 -465.64 C 892.574 -449.03 868.284 -440.73 841.013 -440.73 Z" style="stroke-width: 1px;"/>
</svg>